<svg xmlns="http://www.w3.org/2000/svg" xmlns:xlink="http://www.w3.org/1999/xlink" xmlns:lucid="lucid" width="1126.91" height="824.17"><g transform="translate(-206.7666130444601 347.56054218625115)" lucid:page-tab-id="0_0"><path d="M0-500h1500V500H0z" fill="#fff"/><path d="M309.7-161.76a7.8 7.8 0 0 1 7.56-5.8h106.67a4.6 4.6 0 0 1 4.45 5.8l-18.24 68.4a7.8 7.8 0 0 1-7.55 5.8H295.92a4.6 4.6 0 0 1-4.46-5.8z" stroke="#3a414a" fill="#c7e8ac"/><use xlink:href="#a" transform="matrix(1,0,0,1,294.9268224550625,-162.56054218625115) translate(36.83301649305556 21.700303819444443)"/><use xlink:href="#b" transform="matrix(1,0,0,1,294.9268224550625,-162.56054218625115) translate(74.17242621527778 21.700303819444443)"/><use xlink:href="#c" transform="matrix(1,0,0,1,294.9268224550625,-162.56054218625115) translate(18.330737847222217 39.32183159722222)"/><use xlink:href="#d" transform="matrix(1,0,0,1,294.9268224550625,-162.56054218625115) translate(41.83529513888889 56.943359375)"/><path d="M246.55-81.76a7.8 7.8 0 0 1 7.55-5.8h109.83a4.6 4.6 0 0 1 4.45 5.8l-18.24 68.4a7.8 7.8 0 0 1-7.55 5.8H232.76a4.6 4.6 0 0 1-4.46-5.8z" stroke="#3a414a" fill="#c7e8ac"/><use xlink:href="#e" transform="matrix(1,0,0,1,231.7666130444601,-82.56054218625115) translate(21.830737847222217 30.450303819444443)"/><use xlink:href="#f" transform="matrix(1,0,0,1,231.7666130444601,-82.56054218625115) translate(17.830737847222224 48.07183159722222)"/><use xlink:href="#g" transform="matrix(1,0,0,1,231.7666130444601,-82.56054218625115) translate(45.83529513888889 48.07183159722222)"/><path d="M559.7-241.76a7.8 7.8 0 0 1 7.56-5.8h106.67a4.6 4.6 0 0 1 4.45 5.8l-18.24 68.4a7.8 7.8 0 0 1-7.55 5.8H545.92a4.6 4.6 0 0 1-4.46-5.8z" stroke="#3a414a" fill="#c7e8ac"/><use xlink:href="#h" transform="matrix(1,0,0,1,544.9268224550625,-242.56054218625115) translate(20.330737847222217 30.450303819444443)"/><use xlink:href="#i" transform="matrix(1,0,0,1,544.9268224550625,-242.56054218625115) translate(6.995885416666669 48.07183159722222)"/><use xlink:href="#j" transform="matrix(1,0,0,1,544.9268224550625,-242.56054218625115) translate(53.670147569444445 48.07183159722222)"/><path d="M389.7-241.76a7.8 7.8 0 0 1 7.56-5.8h103.5a4.6 4.6 0 0 1 4.46 5.8l-18.24 68.4a7.8 7.8 0 0 1-7.55 5.8h-103.5a4.6 4.6 0 0 1-4.46-5.8z" stroke="#3a414a" fill="#c7e8ac"/><use xlink:href="#k" transform="matrix(1,0,0,1,374.9268224550625,-242.56054218625115) translate(26.165590277777774 39.20030381944444)"/><path d="M488.14-321.76a7.8 7.8 0 0 1 7.55-5.8h120.33a4.6 4.6 0 0 1 4.46 5.8l-18.25 68.4a7.8 7.8 0 0 1-7.55 5.8H474.35a4.6 4.6 0 0 1-4.45-5.8z" stroke="#3a414a" fill="#c7e8ac"/><use xlink:href="#l" transform="matrix(1,0,0,1,473.35392043069044,-322.56054218625115) translate(22.66331163194444 30.450303819444443)"/><use xlink:href="#m" transform="matrix(1,0,0,1,473.35392043069044,-322.56054218625115) translate(41.50044270833333 48.07183159722222)"/><path d="M603.4-161.76a7.8 7.8 0 0 1 7.54-5.8h133a4.6 4.6 0 0 1 4.44 5.8l-18.24 68.4a7.8 7.8 0 0 1-7.55 5.8h-133a4.6 4.6 0 0 1-4.45-5.8z" stroke="#3a414a" fill="#c7e8ac"/><use xlink:href="#a" transform="matrix(1,0,0,1,588.6064036338577,-162.56054218625115) translate(45.665590277777774 21.700303819444443)"/><use xlink:href="#n" transform="matrix(1,0,0,1,588.6064036338577,-162.56054218625115) translate(83.005 21.700303819444443)"/><use xlink:href="#o" transform="matrix(1,0,0,1,588.6064036338577,-162.56054218625115) translate(8.493606770833347 39.32183159722222)"/><use xlink:href="#p" transform="matrix(1,0,0,1,588.6064036338577,-162.56054218625115) translate(46.00044270833333 56.943359375)"/><path d="M387.02-86.56l.08 3.43.23 3.72.37 3.54.5 3.4.62 3.25.75 3.15.85 3.08.98 3 1.1 2.96 1.23 2.92 1.38 2.92 1.53 2.92 1.7 2.95 1.9 3 2.13 3.06 2.4 3.18 2.77 3.32 3.2 3.55 3.8 3.88 4.65 4.37 6.14 5.3 9.78 7.7 33.88 25.58 6.13 5.28 4.68 4.38 3.8 3.87 3.18 3.55 2.76 3.32 2.4 3.18 2.14 3.06 1.9 3 1.7 2.94 1.53 2.92 1.36 2.92 1.23 2.93 1.1 2.96.97 3 .86 3.08.74 3.17.62 3.27.5 3.4.36 3.53.24 3.72.07 3.42" stroke="#3a414a" stroke-linejoin="round" fill="none"/><path d="M387.52-86.56l-1 .03v-.53h1zM507.78 89.08l-.48-.06-.52.02v-.53h1z" stroke="#3a414a" stroke-width=".05" fill="#3a414a"/><path d="M325.06-6.56v.3l.06.76.08.76.1.76.15.75.18.74.2.76.25.75.28.76.32.77.37.77.4.8.48.8.53.83.6.86.67.88.76.93.87.97 1 1.02 1.15 1.07 1.33 1.15 1.56 1.24 1.84 1.33 2.2 1.44 2.64 1.6 3.26 1.8 4.1 2.02 5.3 2.36 7.24 2.85 10.64 3.7 19.68 5.87L458.7 53l10.66 3.7 7.22 2.84 5.32 2.36 4.1 2.03 3.25 1.8 2.65 1.6 2.2 1.44 1.83 1.34 1.55 1.24 1.33 1.15 1.17 1.07 1 1.02.87.96.77.92.68.9.6.85.52.83.47.8.42.8.35.77.32.77.28.75.25.75.2.75.18.74.14.74.1.76.1.76.04.77v.3" stroke="#3a414a" stroke-linejoin="round" fill="none"/><path d="M325.56-6.56l-1 .02v-.52h1zM507.78 89.08l-.48-.06-.52.02v-.53h1z" stroke="#3a414a" stroke-width=".05" fill="#3a414a"/><path d="M567.33-166.56l-.32 15.28-.83 13.53-1.25 11.9-1.57 10.7-1.88 9.84-2.18 9.28-2.54 9.06-3 9.2-3.73 10.04-5.52 13.07L524.6-10.3 520.84-.3l-3 9.2-2.52 9.06-2.18 9.3-1.87 9.84-1.58 10.7-1.25 11.9-.85 13.53-.3 15.27" stroke="#3a414a" stroke-linejoin="round" fill="none"/><path d="M567.83-166.53l-1-.02v-.5h1zM507.78 88.5v.58l-.48-.06-.52.02v-.53z" stroke="#3a414a" stroke-width=".05" fill="#3a414a"/><path d="M457.64-166.56l.37 18.27 1 15.68 1.4 13.5 1.78 12.06 2.1 11.12 2.52 10.7 3.06 10.94 4.12 12.63 21.07 57.94L498.1 7.2l2.5 10.7 2.13 11.12 1.78 12.05 1.42 13.52.98 15.65.37 18.27" stroke="#3a414a" stroke-linejoin="round" fill="none"/><path d="M458.14-166.55l-1 .02v-.53h1zM507.78 89.08l-.48-.06-.52.02v-.53h1z" stroke="#3a414a" stroke-width=".05" fill="#3a414a"/><path d="M516.4-246.56l-2.2 120.2-6.9 214.88" stroke="#3a414a" stroke-linejoin="round" fill="none"/><path d="M516.9-246.53l-1-.02.02-.5h1zM507.78 88.5v.58l-.48-.06-.52.02v-.53z" stroke="#3a414a" stroke-width=".05" fill="#3a414a"/><path d="M615.82-86.56l-.08 3.84-.25 4.1-.42 3.86-.55 3.68-.67 3.53-.8 3.4-.92 3.3-1.04 3.23-1.18 3.16-1.3 3.13-1.48 3.1-1.62 3.1-1.82 3.16-2.03 3.2-2.3 3.3-2.6 3.43-3.03 3.66-3.6 3.98-4.4 4.5-5.9 5.53L569.6-5.6l-26.34 21.93-5.9 5.52-4.42 4.5-3.6 4-3 3.65-2.63 3.44-2.3 3.3-2.02 3.2-1.8 3.14-1.63 3.1-1.47 3.12-1.3 3.12-1.2 3.16L511 62.8l-.92 3.3-.8 3.4-.68 3.54-.54 3.7-.4 3.85-.26 4.08-.08 3.84" stroke="#3a414a" stroke-linejoin="round" fill="none"/><path d="M616.32-86.53l-1-.03v-.5h1zM507.78 88.5v.58l-.48-.06-.52.02v-.53z" stroke="#3a414a" stroke-width=".05" fill="#3a414a"/><path d="M642.5-81.76a7.8 7.8 0 0 1 7.55-5.8H776.7a4.6 4.6 0 0 1 4.47 5.8l-18.24 68.4a7.8 7.8 0 0 1-7.55 5.8H628.7a4.6 4.6 0 0 1-4.44-5.8z" stroke="#3a414a" fill="#c7e8ac"/><use xlink:href="#h" transform="matrix(1,0,0,1,627.7140151873472,-82.56054218625115) translate(32.83073784722222 21.700303819444443)"/><use xlink:href="#q" transform="matrix(1,0,0,1,627.7140151873472,-82.56054218625115) translate(18.99588541666666 39.32183159722222)"/><use xlink:href="#r" transform="matrix(1,0,0,1,627.7140151873472,-82.56054218625115) translate(112.34440972222222 39.32183159722222)"/><use xlink:href="#s" transform="matrix(1,0,0,1,627.7140151873472,-82.56054218625115) translate(19.16331163194444 56.943359375)"/><path d="M813.93-81.76a7.8 7.8 0 0 1 7.55-5.8h120.34a4.6 4.6 0 0 1 4.46 5.8l-18.24 68.4a7.8 7.8 0 0 1-7.55 5.8H800.13a4.6 4.6 0 0 1-4.45-5.8z" stroke="#3a414a" fill="#ffeca9"/><use xlink:href="#h" transform="matrix(1,0,0,1,799.1442003259583,-82.56054218625115) translate(29.830737847222217 21.700303819444443)"/><use xlink:href="#q" transform="matrix(1,0,0,1,799.1442003259583,-82.56054218625115) translate(15.995885416666662 39.32183159722222)"/><use xlink:href="#r" transform="matrix(1,0,0,1,799.1442003259583,-82.56054218625115) translate(109.34440972222222 39.32183159722222)"/><use xlink:href="#t" transform="matrix(1,0,0,1,799.1442003259583,-82.56054218625115) translate(34.83301649305555 56.943359375)"/><path d="M919.8-161.76a7.8 7.8 0 0 1 7.53-5.8h120.35a4.6 4.6 0 0 1 4.45 5.8l-18.24 68.4a7.8 7.8 0 0 1-7.55 5.8H906a4.6 4.6 0 0 1-4.45-5.8z" stroke="#3a414a" fill="#ffeca9"/><use xlink:href="#u" transform="matrix(1,0,0,1,905,-162.56054218625115) translate(11.32845920138889 39.20030381944444)"/><path d="M979.04-81.76a7.8 7.8 0 0 1 7.55-5.8h120.33a4.6 4.6 0 0 1 4.46 5.8l-18.25 68.4a7.8 7.8 0 0 1-7.55 5.8H965.25a4.6 4.6 0 0 1-4.45-5.8z" stroke="#3a414a" fill="#ffeca9"/><use xlink:href="#a" transform="matrix(1,0,0,1,964.2539666433645,-82.56054218625115) translate(39.165590277777774 21.700303819444443)"/><use xlink:href="#v" transform="matrix(1,0,0,1,964.2539666433645,-82.56054218625115) translate(76.505 21.700303819444443)"/><use xlink:href="#c" transform="matrix(1,0,0,1,964.2539666433645,-82.56054218625115) translate(25.330737847222217 39.32183159722222)"/><use xlink:href="#d" transform="matrix(1,0,0,1,964.2539666433645,-82.56054218625115) translate(48.83529513888889 56.943359375)"/><path d="M1179.8-81.76a7.8 7.8 0 0 1 7.53-5.8h120.35a4.6 4.6 0 0 1 4.45 5.8l-18.24 68.4a7.8 7.8 0 0 1-7.55 5.8H1166a4.6 4.6 0 0 1-4.45-5.8z" stroke="#3a414a" fill="#ffbbb1"/><use xlink:href="#h" transform="matrix(1,0,0,1,1165,-82.56054218625115) translate(29.830737847222217 21.700303819444443)"/><use xlink:href="#q" transform="matrix(1,0,0,1,1165,-82.56054218625115) translate(15.995885416666662 39.32183159722222)"/><use xlink:href="#r" transform="matrix(1,0,0,1,1165,-82.56054218625115) translate(109.34440972222222 39.32183159722222)"/><use xlink:href="#w" transform="matrix(1,0,0,1,1165,-82.56054218625115) translate(44.16786892361111 56.943359375)"/><path d="M1155.58-161.76a7.8 7.8 0 0 1 7.55-5.8h120.34a4.6 4.6 0 0 1 4.46 5.8l-18.24 68.4a7.8 7.8 0 0 1-7.56 5.8H1141.8a4.6 4.6 0 0 1-4.46-5.8z" stroke="#3a414a" fill="#ffbbb1"/><use xlink:href="#a" transform="matrix(1,0,0,1,1140.7939180993817,-162.56054218625115) translate(29.830737847222217 21.700303819444443)"/><use xlink:href="#x" transform="matrix(1,0,0,1,1140.7939180993817,-162.56054218625115) translate(67.17014756944444 21.700303819444443)"/><use xlink:href="#c" transform="matrix(1,0,0,1,1140.7939180993817,-162.56054218625115) translate(25.330737847222217 39.32183159722222)"/><use xlink:href="#d" transform="matrix(1,0,0,1,1140.7939180993817,-162.56054218625115) translate(48.83529513888889 56.943359375)"/><path d="M507.3 88.52v-.34l.05-.82.08-.82.12-.8.15-.8.2-.78.2-.8.27-.8.3-.78.33-.8.4-.83.42-.83.5-.85.55-.87.62-.9.7-.93.8-.97.92-1 1.04-1.08 1.2-1.13 1.4-1.2 1.6-1.3 1.92-1.38 2.28-1.5 2.77-1.68 3.4-1.87 4.3-2.13 5.63-2.5 7.77-3.06 12-4.16 78.66-23.84 7.76-3.06 5.63-2.5 4.3-2.13 3.4-1.88 2.75-1.67 2.28-1.5 1.92-1.4 1.62-1.3 1.4-1.18 1.2-1.13 1.03-1.06.9-1.02.82-.97.7-.94.63-.9.55-.87.5-.86.43-.83.38-.8.35-.82.3-.8.26-.79.23-.8.18-.8.17-.78.1-.8.1-.8.05-.84v-.34" stroke="#3a414a" stroke-linejoin="round" fill="none"/><path d="M507.8 88.52l-.02.56-.48-.06-.52.02v-.54zM678.34-6.55h-1v-.5h1z" stroke="#3a414a" stroke-width=".05" fill="#3a414a"/><path d="M871-6.56l.17 7.46.48 6.58.7 5.66.86 5.05 1.05 4.7 1.27 4.6 1.63 4.96 2.7 6.97 6.7 16.55 1.63 4.96 1.27 4.6 1.05 4.7.87 5.06.68 5.66.48 6.58.18 7.46" stroke="#3a414a" stroke-linejoin="round" fill="none"/><path d="M871.5-6.56l-1 .02-.02-.52h1zM893.22 95.56l-.48-.06-.52.02V95h1z" stroke="#3a414a" stroke-width=".05" fill="#3a414a"/><path d="M961.33-86.56l-.14 6.74-.42 6.55-.63 6-.82 5.56-1 5.2-1.15 4.9-1.3 4.73-1.5 4.56-1.66 4.47-1.88 4.45-2.13 4.53-2.45 4.7-2.95 5.1-3.76 5.93-5.84 8.36-19.2 26.32-3.75 5.92-2.94 5.1-2.46 4.7-2.13 4.54-1.86 4.45-1.67 4.48-1.48 4.56-1.33 4.73-1.15 4.92-1 5.2-.8 5.56-.64 6-.4 6.56-.15 6.74" stroke="#3a414a" stroke-linejoin="round" fill="none"/><path d="M961.82-86.53l-1-.03v-.5h1zM893.22 95v.56l-.48-.06-.52.02V95z" stroke="#3a414a" stroke-width=".05" fill="#3a414a"/><path d="M1002.36-6.56l-.03 1.1-.1 1.56-.17 1.5-.24 1.46-.3 1.42-.36 1.4-.42 1.4-.5 1.38-.55 1.37-.65 1.38-.72 1.4-.82 1.4-.9 1.44-1.05 1.48-1.18 1.52-1.36 1.58-1.54 1.66-1.8 1.75-2.1 1.88-2.52 2.04-3.06 2.26-3.85 2.57-5.1 3.08-7.55 4.1L922.05 57l-5.1 3.07-3.84 2.57-3.05 2.26-2.5 2.03-2.12 1.88-1.8 1.77-1.55 1.65-1.36 1.58-1.18 1.52-1.04 1.48-.92 1.43-.82 1.4-.72 1.4-.64 1.38-.56 1.38-.5 1.38-.4 1.4-.37 1.4-.3 1.42-.24 1.46-.17 1.5-.1 1.55-.03 1.1" stroke="#3a414a" stroke-linejoin="round" fill="none"/><path d="M1002.86-6.54l-1-.02v-.5h1zM893.22 95v.56l-.48-.06-.52.02V95z" stroke="#3a414a" stroke-width=".05" fill="#3a414a"/><path d="M1188.93-6.56v.75l-.1 1.2-.1 1.2-.2 1.16-.2 1.14-.27 1.13-.3 1.12-.37 1.1-.43 1.12-.47 1.12-.53 1.1-.6 1.15-.66 1.15-.74 1.18-.84 1.2-.94 1.25-1.07 1.3-1.2 1.33-1.37 1.4-1.58 1.5-1.83 1.57-2.14 1.7-2.54 1.84-3.07 2.03-3.8 2.3-4.87 2.67-6.7 3.3-10.88 4.83-45.23 18.66-6.7 3.3-4.9 2.7-3.78 2.28-3.07 2.04-2.54 1.84-2.13 1.7-1.83 1.57-1.58 1.47-1.38 1.4-1.2 1.35-1.07 1.3-.93 1.23-.84 1.2-.75 1.2-.67 1.14-.58 1.13-.53 1.12-.48 1.12-.42 1.1-.36 1.12-.3 1.1-.27 1.14-.22 1.14-.17 1.17-.13 1.18-.08 1.22V95" stroke="#3a414a" stroke-linejoin="round" fill="none"/><path d="M1189.43-6.54l-1-.02v-.5h1zM1059.45 95v.56l-.48-.06-.52.02V95z" stroke="#3a414a" stroke-width=".05" fill="#3a414a"/><path d="M1160.32-86.56l-.1 4.48-.28 4.66-.46 4.37-.6 4.15-.77 3.96-.88 3.8-1.02 3.67-1.16 3.58-1.3 3.5-1.46 3.47-1.62 3.43-1.8 3.45-2.02 3.5-2.27 3.57-2.58 3.7-3 3.95-3.56 4.3-4.4 4.9L1125-10l-15.03 13.92-15.7 14.52-6.02 6.14-4.4 4.9-3.56 4.3-3 3.92-2.6 3.72-2.26 3.58-2.02 3.5-1.8 3.44-1.62 3.43-1.45 3.46-1.3 3.5-1.16 3.58-1.04 3.68-.9 3.8-.75 3.96-.6 4.15-.46 4.36-.3 4.66-.08 4.48" stroke="#3a414a" stroke-linejoin="round" fill="none"/><path d="M1160.82-86.53l-1-.03v-.5h1zM1059.45 95v.56l-.48-.06-.52.02V95z" stroke="#3a414a" stroke-width=".05" fill="#3a414a"/><path d="M949.57 153.84l.14-6.8.42-6.5.62-5.9.8-5.4.95-5.05 1.1-4.76 1.27-4.54 1.44-4.4 1.63-4.37 1.86-4.42 2.16-4.6 2.67-5.1 3.65-6.3 19.02-30.4 2.67-5.1 2.17-4.63 1.86-4.4 1.62-4.38 1.44-4.42 1.26-4.54 1.12-4.75.96-5.04.8-5.42.6-5.9.42-6.5.14-6.8" stroke="#3a414a" stroke-linejoin="round" fill="none"/><path d="M950.07 153.84v.5h-1v-.52zM1002.87-6.55h-1v-.5h1z" stroke="#3a414a" stroke-width=".05" fill="#3a414a"/><path d="M950.03 195.85l-.46 53.88" stroke="#3a414a" stroke-linejoin="round" fill="none"/><path d="M950.53 195.86h-1v-.52h1zM950.07 249.72v.56l-.5-.06-.5.02v-.53z" stroke="#3a414a" stroke-width=".05" fill="#3a414a"/><path d="M991.4 386.6c19.33 0 35 15.68 35 35 0 19.34-15.67 35-35 35h-83.68c-19.33 0-35-15.66-35-35 0-19.32 15.67-35 35-35z" stroke="#3a414a" fill="#ffbbb1"/><use xlink:href="#y" transform="matrix(1,0,0,1,877.720534195901,391.60605916054067) translate(41.9951171875 35.400390625)"/><path d="M492.28 386.6c19.33 0 35 15.68 35 35 0 19.34-15.67 35-35 35H400.7c-19.32 0-35-15.66-35-35 0-19.32 15.68-35 35-35z" stroke="#3a414a" fill="#c7e8ac"/><use xlink:href="#z" transform="matrix(1,0,0,1,370.70656377972705,391.60605916054067) translate(9.9892578125 35.400390625)"/><path d="M738.2 386.6c19.33 0 35 15.68 35 35 0 19.34-15.67 35-35 35h-76.4c-19.33 0-35-15.66-35-35 0-19.32 15.67-35 35-35z" stroke="#3a414a" fill="#ffeca9"/><use xlink:href="#A" transform="matrix(1,0,0,1,631.799372800981,391.60605916054067) translate(26.4931640625 35.400390625)"/><path d="M949.56 385.6v-93.87" stroke="#3a414a" stroke-linejoin="round" fill="none"/><path d="M950.06 386.1h-1v-.5h1zM949.54 291.23l.52-.02v.54h-1v-.57z" stroke="#3a414a" stroke-width=".05" fill="#3a414a"/><path d="M893.1 137v.53l-.08 1.02-.1 1-.15 1-.18.97-.24.97-.27.96-.33.98-.37.98-.4.98-.48 1-.53 1.02-.62 1.04-.67 1.07-.76 1.1-.86 1.14-.98 1.18-1.1 1.23-1.28 1.3-1.47 1.37-1.7 1.46-1.96 1.57-2.34 1.7-2.77 1.83-3.38 2.04-4.15 2.28-5.27 2.6-6.95 3.1-9.76 3.84-15.9 5.5-78.98 24.7-9.76 3.84-6.95 3.08-5.26 2.6-4.15 2.3-3.38 2.03-2.77 1.85-2.33 1.7-1.97 1.55-1.7 1.46-1.46 1.37-1.28 1.3-1.1 1.23-1 1.2-.85 1.12-.77 1.1-.67 1.07-.6 1.04-.54 1-.48 1-.4 1-.38.98-.32.97-.27.97-.23.98-.18.98-.15.98-.1 1-.08 1.02v.55" stroke="#3a414a" stroke-linejoin="round" fill="none"/><path d="M893.6 137h-1v-.5h.1l.9-.03zM700.5 249.7v.58l-.48-.06-.52.02v-.53z" stroke="#3a414a" stroke-width=".05" fill="#3a414a"/><path d="M949.55 291.73l-.04 1.97-.1 1.93-.17 1.52-.18 1.24-.2 1-.2.87-.2.73-.2.62-.2.54-.2.48-.2.42-.2.37-.18.33-.2.3-.18.27-.2.25-.18.22-.2.2-.17.2-.2.17-.17.16-.2.14-.18.14-.18.14-.2.1-.2.12-.2.1-.2.1-.2.08-.23.07-.24.08-.24.06-.24.06-.26.04-.27.03-.3.03h-.98l-.38-.04-.43-.05-.46-.07-.5-.1-.55-.15-.64-.2-.7-.24-.85-.34-.98-.43-1.18-.6-1.44-.78-1.83-1.12-2.4-1.6-3.44-2.5-5.68-4.52-46.6-39.65-7.6-5.54-6.14-4.08-5.14-3.12-4.44-2.44-3.9-1.94-3.48-1.55-3.13-1.24-2.87-1-2.63-.8-2.43-.63-2.27-.48-2.13-.38-2-.25-1.9-.16-1.82-.06h-.38" stroke="#3a414a" stroke-linejoin="round" fill="none"/><path d="M949.54 291.23l.52-.02v.55l-1-.02v-.56zM821.2 230.23l-.02 1h-.5v-1z" stroke="#3a414a" stroke-width=".05" fill="#3a414a"/><path d="M700 249.72l.06-1.5.17-1.75.24-1.53.3-1.37.36-1.24.4-1.13.46-1.04.48-.97.53-.92.6-.85.63-.82.68-.77.76-.75.83-.73.9-.7 1-.7 1.15-.67 1.3-.66 1.5-.65 1.74-.63 2.07-.6 2.56-.58 3.22-.5 4.27-.4 6.15-.2 11.14.37 35.67 2.26" stroke="#3a414a" stroke-linejoin="round" fill="none"/><path d="M700.5 249.73v.55l-.48-.06-.52.02.02-.54zM779.67 230.22v1l-.54-.03.06-1z" stroke="#3a414a" stroke-width=".05" fill="#3a414a"/><path d="M700 291.73v93.88" stroke="#3a414a" stroke-linejoin="round" fill="none"/><path d="M699.98 291.23l.52-.02v.54h-1v-.57zM700.5 386.1h-1v-.5h1z" stroke="#3a414a" stroke-width=".05" fill="#3a414a"/><path d="M446.5 249.72l.1-4.75.3-4.62.42-4.1.54-3.7.63-3.3.7-3.03.77-2.76.83-2.54.87-2.35.92-2.18.94-2.05 1-1.9 1.04-1.8 1.08-1.7 1.12-1.62 1.16-1.53 1.2-1.46 1.27-1.4 1.33-1.34 1.37-1.3 1.44-1.23 1.5-1.2 1.6-1.16 1.7-1.1 1.78-1.1 1.9-1.04 2.05-1 2.2-1 2.36-.93 2.58-.9 2.82-.84 3.1-.8 3.44-.74 3.86-.65 4.35-.53 4.98-.42 5.8-.24 6.82.02 8.27.35 10.32.87 13.55 1.73 19.56 3.34 39.03 8.46 98.13 22.47 24.14 4.12L749 229l14 1.18 11.56.5 4.6.04" stroke="#3a414a" stroke-linejoin="round" fill="none"/><path d="M447 249.72v.56l-.5-.06-.5.02v-.54zM779.67 230.23v1h-.5v-1z" stroke="#3a414a" stroke-width=".05" fill="#3a414a"/><path d="M446.5 249.72l.05-1.47.13-1.75.2-1.54.28-1.4.3-1.25.36-1.14.4-1.07.4-1 .46-.9.5-.88.5-.82.56-.78.6-.74.63-.7.68-.7.73-.67.8-.64.87-.63.95-.62 1.05-.6 1.17-.58 1.3-.57 1.5-.56 1.7-.55 2-.52 2.38-.47 2.9-.42 3.63-.33 4.8-.16 6.95.12 13.48 1 34.64 3.23 5.53.1" stroke="#3a414a" stroke-linejoin="round" fill="none"/><path d="M447 249.72v.56l-.5-.06-.5.02v-.54zM539.43 230.23v1l-.53-.02.03-1z" stroke="#3a414a" stroke-width=".05" fill="#3a414a"/><path d="M580.93 230.74l1.1.02 1.7.1 1.76.2 1.85.27 1.97.37 2.1.5 2.23.62 2.42.8 2.63.97 2.88 1.2 3.18 1.5 3.55 1.86 4.04 2.33 4.65 2.94 5.48 3.82 6.75 5.14 8.98 7.44 17.9 16.27 18.9 17.42 4.5 3.74 2.83 2.16 2 1.4 1.54.98 1.22.7 1 .52.83.4.7.3.63.23.54.18.48.13.44.1.4.08.34.05.33.02.3.02h.79l.23-.04.22-.03.2-.04.22-.05.2-.05.18-.06.2-.07.16-.08.2-.08.16-.1.17-.08.16-.1.16-.12.16-.13.16-.12.16-.14.16-.16.16-.17.17-.18.16-.2.15-.23.17-.27.17-.28.16-.3.18-.36.17-.4.2-.47.18-.53.18-.6.2-.73.17-.86.18-1.04.17-1.28.13-1.6.1-2.08v-.77" stroke="#3a414a" stroke-linejoin="round" fill="none"/><path d="M580.95 230.24l-.02 1h-.5v-1zM699.98 291.23l.52-.02v.54h-1v-.57z" stroke="#3a414a" stroke-width=".05" fill="#3a414a"/><path d="M446.5 291.73v93.88" stroke="#3a414a" stroke-linejoin="round" fill="none"/><path d="M446.47 291.23l.52-.02v.54h-1v-.57zM447 386.1h-1v-.5h1z" stroke="#3a414a" stroke-width=".05" fill="#3a414a"/><path d="M1078.95 116c0 11.05-8.96 20-20 20-11.05 0-20-8.95-20-20s8.95-20 20-20c11.04 0 20 8.95 20 20z" stroke="#3a414a" fill="#fff"/><g><use xlink:href="#B" transform="matrix(1,0,0,1,1043.9480535998891,101.00083703476298) translate(6.998697916666666 18.850260416666668)"/></g><path d="M969.56 270.73c0 11.04-8.95 20-20 20-11.04 0-20-8.96-20-20 0-11.05 8.96-20 20-20 11.05 0 20 8.95 20 20z" stroke="#3a414a" fill="#fff"/><g><use xlink:href="#C" transform="matrix(1,0,0,1,934.5603247235603,255.7257917162633) translate(2.998046875 18.850260416666668)"/></g><path d="M912.72 116c0 11.05-8.95 20-20 20s-20-8.95-20-20 8.95-20 20-20 20 8.95 20 20z" stroke="#3a414a" fill="#fff"/><g><use xlink:href="#B" transform="matrix(1,0,0,1,877.720534195901,101.00083703476298) translate(6.998697916666666 18.850260416666668)"/></g><path d="M466.5 270.73c0 11.04-8.96 20-20 20-11.05 0-20-8.96-20-20 0-11.05 8.95-20 20-20 11.04 0 20 8.95 20 20z" stroke="#3a414a" fill="#fff"/><g><use xlink:href="#C" transform="matrix(1,0,0,1,431.4930147919131,255.7257917162633) translate(2.998046875 18.850260416666668)"/></g><path d="M720 270.73c0 11.04-8.95 20-20 20s-20-8.96-20-20c0-11.05 8.95-20 20-20s20 8.95 20 20z" stroke="#3a414a" fill="#fff"/><g><use xlink:href="#C" transform="matrix(1,0,0,1,685,255.7257917162633) translate(2.998046875 18.850260416666668)"/></g><path d="M949.57 249.72l.03-1.4.12-1.83.2-1.78.26-1.72.34-1.67.4-1.64.48-1.62.54-1.6.63-1.58.7-1.6.8-1.58.88-1.6 1-1.63 1.12-1.67 1.26-1.7 1.43-1.77 1.63-1.84 1.87-1.93 2.18-2.07 2.57-2.23 3.1-2.45 3.85-2.77 5.05-3.32 7.44-4.4 41.03-22.4 5.03-3.3 3.86-2.8 3.08-2.44 2.58-2.22 2.18-2.06 1.87-1.94 1.65-1.83 1.43-1.77 1.26-1.7 1.12-1.67 1-1.62.9-1.6.78-1.6.7-1.57.63-1.6.54-1.58.5-1.6.4-1.65.33-1.68.26-1.7.2-1.78.1-1.83.04-1.4" stroke="#3a414a" stroke-linejoin="round" fill="none"/><path d="M950.07 249.72v.56l-.5-.06-.5.02v-.54zM1058.93 136.5l.52-.02v.53h-1v-.56z" stroke="#3a414a" stroke-width=".05" fill="#3a414a"/><path d="M527.28 109.52c0 11.05-8.95 20-20 20s-20-8.95-20-20c0-11.04 8.95-20 20-20s20 8.96 20 20z" stroke="#3a414a" fill="#fff"/><g><use xlink:href="#B" transform="matrix(1,0,0,1,492.2794658040991,94.52275329213933) translate(6.998697916666666 18.850260416666668)"/></g><path d="M929.56 160.85a6 6 0 0 1 6-6h28a6 6 0 0 1 6 6v28a6 6 0 0 1-6 6h-28a6 6 0 0 1-6-6z" stroke="#3a414a" fill="#fff"/><g><use xlink:href="#D" transform="matrix(1,0,0,1,941.5603247852986,166.8455346619968) translate(-4.001953125 12.048177083333334)"/></g><path d="M539.93 216.73a6 6 0 0 1 6-6h28a6 6 0 0 1 6 6v28a6 6 0 0 1-6 6h-28a6 6 0 0 1-6-6z" stroke="#3a414a" fill="#fff"/><g><use xlink:href="#D" transform="matrix(1,0,0,1,551.9268224550625,222.72578132625245) translate(-4.001953125 12.048177083333334)"/></g><path d="M780.17 216.73a6 6 0 0 1 6-6h28a6 6 0 0 1 6 6v28a6 6 0 0 1-6 6h-28a6 6 0 0 1-6-6z" stroke="#3a414a" fill="#fff"/><g><use xlink:href="#D" transform="matrix(1,0,0,1,792.1725959707081,222.72578132625245) translate(-4.001953125 12.048177083333334)"/></g><path d="M446.5 249.72l.07-3.08.2-3.33.33-3.1.44-2.95.53-2.8.62-2.66.7-2.58.82-2.5.9-2.44 1.03-2.4 1.13-2.4 1.26-2.43 1.42-2.46 1.6-2.55 1.88-2.68 2.2-2.9 2.77-3.34 3.82-4.22 21.15-21.78 2.75-3.33 2.2-2.92 1.88-2.68 1.6-2.54 1.43-2.46 1.27-2.42 1.13-2.4 1-2.4.92-2.45.8-2.5.73-2.57.62-2.67.54-2.8.43-2.94.33-3.12.2-3.33.07-3.08" stroke="#3a414a" stroke-linejoin="round" fill="none"/><path d="M447 249.72v.56l-.5-.06-.5.02v-.54zM507.26 130.02l.52-.02v.54h-1v-.58z" stroke="#3a414a" stroke-width=".05" fill="#3a414a"/><defs><path fill="#3a414a" d="M875 0v-623H353V0H162v-1349h191v566h522v-566h191V0H875" id="E"/><path fill="#3a414a" d="M1000-272c3 95 12 159 101 161 21 0 41-3 59-7V-6c-44 10-86 16-139 16-141 2-191-84-197-217h-6C748-76 648 20 446 20c-207 0-318-120-318-322 0-266 194-348 454-354l236-4c12-191-40-305-222-305-140 0-220 47-232 172l-188-17c33-204 181-292 423-292 255 0 401 118 401 364v466zm-683-27c0 109 63 184 175 182 166-3 259-96 306-217 24-65 20-120 20-200-232 7-501-28-501 235" id="F"/><path fill="#3a414a" d="M873-819c-18-114-119-146-250-146-163 0-245 50-245 151 0 151 170 148 294 185 182 54 388 94 388 320 0 240-189 325-439 329-245 4-410-69-454-268l159-31c24 133 136 168 295 165 144-2 270-31 270-171 0-164-195-160-331-202-167-52-350-87-350-299 0-218 173-315 413-313 220 2 373 77 412 260" id="G"/><g id="a"><use transform="matrix(0.007595486111111111,0,0,0.007595486111111111,0,0)" xlink:href="#E"/><use transform="matrix(0.007595486111111111,0,0,0.007595486111111111,9.334852430555555,0)" xlink:href="#F"/><use transform="matrix(0.007595486111111111,0,0,0.007595486111111111,18.66970486111111,0)" xlink:href="#G"/></g><path fill="#3a414a" d="M736-142h380V0H134v-142h422v-1200H267v-142h469v1342" id="H"/><path fill="#3a414a" d="M615-1102c343 0 484 203 482 560-1 347-147 562-488 562-336 0-475-219-479-562-4-349 156-560 485-560zm-8 989c240 0 301-180 301-429 0-245-55-427-290-427-236 0-299 181-299 427 0 243 61 429 288 429" id="I"/><path fill="#3a414a" d="M1018 0H814c-67-224-138-444-200-673C552-442 476-224 407 0H204L21-1082h178c43 310 105 601 126 933 54-225 128-425 193-638h193c63 212 134 415 185 638 22-336 90-622 136-933h176" id="J"/><g id="b"><use transform="matrix(0.007595486111111111,0,0,0.007595486111111111,0,0)" xlink:href="#H"/><use transform="matrix(0.007595486111111111,0,0,0.007595486111111111,9.334852430555555,0)" xlink:href="#I"/><use transform="matrix(0.007595486111111111,0,0,0.007595486111111111,18.66970486111111,0)" xlink:href="#J"/></g><path fill="#3a414a" d="M745-142h380V0H143v-142h422v-798H246v-142h499v940zM545-1292v-192h200v192H545" id="K"/><path fill="#3a414a" d="M706-1102c241 0 344 136 343 381V0H868v-695c1-168-57-273-220-268-190 6-283 138-283 336V0H185c-3-360 6-732-6-1082h170c4 54 7 126 8 185h3c63-121 164-204 346-205" id="L"/><path fill="#3a414a" d="M365-904c58-129 161-200 334-200 130 0 228 46 293 138s98 233 98 420c0 189-34 331-102 425S824 20 698 20c-170 0-275-64-336-184 0 55-3 116-9 164H179c5-68 6-147 6-223v-1261h180c-2 193 4 394-4 580h4zm283 791c221 0 256-197 256-427 0-229-34-425-254-425-236 0-285 195-285 441 0 237 53 411 283 411" id="M"/><path fill="#3a414a" d="M839-1102c70 0 148 7 206 17v167c-112-18-268-36-363 15-129 69-208 203-208 395V0H294c-10-367 32-789-52-1082h171c21 75 41 161 48 250h5c67-152 152-270 373-270" id="N"/><path fill="#3a414a" d="M617-1102c355 0 481 238 477 599H322c5 222 84 388 301 388 144 0 244-59 284-166l158 45C1002-72 854 20 623 20c-342 0-490-220-490-568 0-346 151-554 484-554zm291 461c-18-192-90-328-289-328-194 0-287 128-295 328h584" id="O"/><path fill="#3a414a" d="M865-914c-3-187-2-380-2-570h180v1261c0 76 1 155 6 223H877c-8-49-9-116-10-174h-5C801-44 708 26 530 26c-135 0-234-46-297-139s-95-232-95-419c0-377 131-566 392-566 176 0 271 63 335 184zm-286-51c-222 0-255 197-255 427 0 229 31 425 253 425 237 0 286-195 286-441 0-238-52-411-284-411" id="P"/><path fill="#3a414a" d="M1048-32c-2 300-135 456-433 456-222-1-358-88-400-267l184-25c22 99 100 157 222 156 184-2 248-125 248-315 0-64 3-133-2-194C807-100 706-13 524-12c-306 0-381-228-381-537 0-318 85-550 400-550 164 0 271 83 325 202h3c1-60 3-134 12-185h171c-13 339-4 702-6 1050zM585-145c210-8 284-178 284-406 0-192-52-331-177-392-33-16-69-22-104-22-223 2-259 184-259 414 0 229 31 415 256 406" id="Q"/><g id="c"><use transform="matrix(0.007595486111111111,0,0,0.007595486111111111,0,0)" xlink:href="#K"/><use transform="matrix(0.007595486111111111,0,0,0.007595486111111111,9.334852430555555,0)" xlink:href="#L"/><use transform="matrix(0.007595486111111111,0,0,0.007595486111111111,18.66970486111111,0)" xlink:href="#M"/><use transform="matrix(0.007595486111111111,0,0,0.007595486111111111,28.004557291666664,0)" xlink:href="#N"/><use transform="matrix(0.007595486111111111,0,0,0.007595486111111111,37.33940972222222,0)" xlink:href="#O"/><use transform="matrix(0.007595486111111111,0,0,0.007595486111111111,46.67426215277778,0)" xlink:href="#O"/><use transform="matrix(0.007595486111111111,0,0,0.007595486111111111,56.009114583333336,0)" xlink:href="#P"/><use transform="matrix(0.007595486111111111,0,0,0.007595486111111111,65.34396701388889,0)" xlink:href="#K"/><use transform="matrix(0.007595486111111111,0,0,0.007595486111111111,74.67881944444444,0)" xlink:href="#L"/><use transform="matrix(0.007595486111111111,0,0,0.007595486111111111,84.013671875,0)" xlink:href="#Q"/></g><path fill="#3a414a" d="M682 16c-209 0-323-80-324-285v-671H190v-142h170l58-282h120v282h432v142H538v652c2 114 60 155 182 155 106 0 209-16 297-34v137C921-4 806 16 682 16" id="R"/><g id="d"><use transform="matrix(0.007595486111111111,0,0,0.007595486111111111,0,0)" xlink:href="#N"/><use transform="matrix(0.007595486111111111,0,0,0.007595486111111111,9.334852430555555,0)" xlink:href="#F"/><use transform="matrix(0.007595486111111111,0,0,0.007595486111111111,18.66970486111111,0)" xlink:href="#R"/><use transform="matrix(0.007595486111111111,0,0,0.007595486111111111,28.004557291666664,0)" xlink:href="#O"/></g><path fill="#3a414a" d="M385-1193v494h676v158H385V0H194v-1349h891v156H385" id="S"/><path fill="#3a414a" d="M147 0v-137l681-806H187v-139h844v137L349-139h719V0H147" id="T"/><g id="e"><use transform="matrix(0.007595486111111111,0,0,0.007595486111111111,0,0)" xlink:href="#S"/><use transform="matrix(0.007595486111111111,0,0,0.007595486111111111,9.334852430555555,0)" xlink:href="#O"/><use transform="matrix(0.007595486111111111,0,0,0.007595486111111111,18.66970486111111,0)" xlink:href="#N"/><use transform="matrix(0.007595486111111111,0,0,0.007595486111111111,28.004557291666664,0)" xlink:href="#R"/><use transform="matrix(0.007595486111111111,0,0,0.007595486111111111,37.33940972222222,0)" xlink:href="#K"/><use transform="matrix(0.007595486111111111,0,0,0.007595486111111111,46.67426215277778,0)" xlink:href="#H"/><use transform="matrix(0.007595486111111111,0,0,0.007595486111111111,56.009114583333336,0)" xlink:href="#K"/><use transform="matrix(0.007595486111111111,0,0,0.007595486111111111,65.34396701388889,0)" xlink:href="#T"/><use transform="matrix(0.007595486111111111,0,0,0.007595486111111111,74.67881944444444,0)" xlink:href="#O"/><use transform="matrix(0.007595486111111111,0,0,0.007595486111111111,84.013671875,0)" xlink:href="#P"/></g><path fill="#3a414a" d="M168 279c222 39 310-114 368-290L66-1082h192c120 299 249 590 362 896 115-301 235-597 351-896h190L705 0c-65 164-130 320-275 396-67 36-177 35-262 18V279" id="U"/><g id="f"><use transform="matrix(0.007595486111111111,0,0,0.007595486111111111,0,0)" xlink:href="#M"/><use transform="matrix(0.007595486111111111,0,0,0.007595486111111111,9.334852430555555,0)" xlink:href="#U"/></g><path fill="#3a414a" d="M631 20c-350 0-501-215-501-562 0-355 162-560 502-560 250 0 399 118 446 323l-192 14c-23-124-109-196-262-196-242 0-305 171-305 415 1 245 61 427 304 427 151 0 248-77 267-215l190 12C1039-107 883 20 631 20" id="V"/><g id="g"><use transform="matrix(0.007595486111111111,0,0,0.007595486111111111,0,0)" xlink:href="#K"/><use transform="matrix(0.007595486111111111,0,0,0.007595486111111111,9.334852430555555,0)" xlink:href="#L"/><use transform="matrix(0.007595486111111111,0,0,0.007595486111111111,18.66970486111111,0)" xlink:href="#G"/><use transform="matrix(0.007595486111111111,0,0,0.007595486111111111,28.004557291666664,0)" xlink:href="#O"/><use transform="matrix(0.007595486111111111,0,0,0.007595486111111111,37.33940972222222,0)" xlink:href="#V"/><use transform="matrix(0.007595486111111111,0,0,0.007595486111111111,46.67426215277778,0)" xlink:href="#R"/><use transform="matrix(0.007595486111111111,0,0,0.007595486111111111,56.009114583333336,0)" xlink:href="#G"/></g><path fill="#3a414a" d="M162 0v-1349h919v156H353v422h668v154H353v461h769V0H162" id="W"/><path fill="#3a414a" d="M932 0L611-444 288 0H94l415-556-397-526h199l300 421 298-421h201L713-558 1133 0H932" id="X"/><path fill="#3a414a" d="M698-1104c312 3 392 244 392 558 0 315-82 566-392 566-169 0-277-65-331-184h-5c8 188 2 394 4 589H185V-858c0-76-1-156-6-224h175c6 52 9 120 10 178h4c58-122 150-202 330-200zm-49 991c225 0 255-203 255-433 0-225-32-419-253-419-236 0-285 192-285 441 0 237 53 411 283 411" id="Y"/><g id="h"><use transform="matrix(0.007595486111111111,0,0,0.007595486111111111,0,0)" xlink:href="#W"/><use transform="matrix(0.007595486111111111,0,0,0.007595486111111111,9.334852430555555,0)" xlink:href="#X"/><use transform="matrix(0.007595486111111111,0,0,0.007595486111111111,18.66970486111111,0)" xlink:href="#Y"/><use transform="matrix(0.007595486111111111,0,0,0.007595486111111111,28.004557291666664,0)" xlink:href="#H"/><use transform="matrix(0.007595486111111111,0,0,0.007595486111111111,37.33940972222222,0)" xlink:href="#K"/><use transform="matrix(0.007595486111111111,0,0,0.007595486111111111,46.67426215277778,0)" xlink:href="#V"/><use transform="matrix(0.007595486111111111,0,0,0.007595486111111111,56.009114583333336,0)" xlink:href="#K"/><use transform="matrix(0.007595486111111111,0,0,0.007595486111111111,65.34396701388889,0)" xlink:href="#R"/><use transform="matrix(0.007595486111111111,0,0,0.007595486111111111,74.67881944444444,0)" xlink:href="#H"/><use transform="matrix(0.007595486111111111,0,0,0.007595486111111111,84.013671875,0)" xlink:href="#U"/></g><path fill="#3a414a" d="M839-1335c-182-6-269 67-259 253h491v142H580V0H400v-940H138v-142h262c-15-293 132-408 418-402 94 2 200 7 281 21v145c-75-10-177-14-260-17" id="Z"/><g id="i"><use transform="matrix(0.007595486111111111,0,0,0.007595486111111111,0,0)" xlink:href="#G"/><use transform="matrix(0.007595486111111111,0,0,0.007595486111111111,9.334852430555555,0)" xlink:href="#O"/><use transform="matrix(0.007595486111111111,0,0,0.007595486111111111,18.66970486111111,0)" xlink:href="#H"/><use transform="matrix(0.007595486111111111,0,0,0.007595486111111111,28.004557291666664,0)" xlink:href="#Z"/></g><g id="j"><use transform="matrix(0.007595486111111111,0,0,0.007595486111111111,0,0)" xlink:href="#G"/><use transform="matrix(0.007595486111111111,0,0,0.007595486111111111,9.334852430555555,0)" xlink:href="#R"/><use transform="matrix(0.007595486111111111,0,0,0.007595486111111111,18.66970486111111,0)" xlink:href="#O"/><use transform="matrix(0.007595486111111111,0,0,0.007595486111111111,28.004557291666664,0)" xlink:href="#N"/><use transform="matrix(0.007595486111111111,0,0,0.007595486111111111,37.33940972222222,0)" xlink:href="#K"/><use transform="matrix(0.007595486111111111,0,0,0.007595486111111111,46.67426215277778,0)" xlink:href="#H"/><use transform="matrix(0.007595486111111111,0,0,0.007595486111111111,56.009114583333336,0)" xlink:href="#O"/></g><path fill="#3a414a" d="M473-1349c438-1 655 221 652 661C1122-268 945-8 532 0H162v-1349h311zm42 1193c308-4 416-205 418-532 2-330-131-509-459-505H353v1037h162" id="aa"/><path fill="#3a414a" d="M528 20c-247 0-343-132-343-381v-721h180v686c-4 177 45 284 224 277 194-8 279-136 279-336v-627h181c3 360-6 732 6 1082H885c-4-54-7-126-8-185h-3C809-64 714 20 528 20" id="ab"/><g id="k"><use transform="matrix(0.007595486111111111,0,0,0.007595486111111111,0,0)" xlink:href="#aa"/><use transform="matrix(0.007595486111111111,0,0,0.007595486111111111,9.334852430555555,0)" xlink:href="#K"/><use transform="matrix(0.007595486111111111,0,0,0.007595486111111111,18.66970486111111,0)" xlink:href="#I"/><use transform="matrix(0.007595486111111111,0,0,0.007595486111111111,28.004557291666664,0)" xlink:href="#O"/><use transform="matrix(0.007595486111111111,0,0,0.007595486111111111,37.33940972222222,0)" xlink:href="#V"/><use transform="matrix(0.007595486111111111,0,0,0.007595486111111111,46.67426215277778,0)" xlink:href="#I"/><use transform="matrix(0.007595486111111111,0,0,0.007595486111111111,56.009114583333336,0)" xlink:href="#ab"/><use transform="matrix(0.007595486111111111,0,0,0.007595486111111111,65.34396701388889,0)" xlink:href="#G"/></g><path fill="#3a414a" d="M648-963c-190 6-283 138-283 336V0H185v-1484h181c-2 197 6 404-9 587h3c62-120 159-205 339-205 242 0 351 135 350 381V0H868v-695c1-168-57-273-220-268" id="ac"/><path fill="#3a414a" d="M904-1102c199 0 220 177 220 381V0H956v-686c-3-114 0-215-60-264-70-33-125-4-158 71-26 56-39 140-39 252V0H531v-686c-3-114-1-215-61-264-78-41-136 24-157 84-24 69-39 159-39 259V0H105c-3-360 6-732-6-1082h149c6 50 3 123 8 175 36-100 83-195 216-195 135 0 166 79 196 196 42-105 93-196 236-196" id="ad"/><g id="l"><use transform="matrix(0.007595486111111111,0,0,0.007595486111111111,0,0)" xlink:href="#aa"/><use transform="matrix(0.007595486111111111,0,0,0.007595486111111111,9.334852430555555,0)" xlink:href="#K"/><use transform="matrix(0.007595486111111111,0,0,0.007595486111111111,18.66970486111111,0)" xlink:href="#V"/><use transform="matrix(0.007595486111111111,0,0,0.007595486111111111,28.004557291666664,0)" xlink:href="#ac"/><use transform="matrix(0.007595486111111111,0,0,0.007595486111111111,37.33940972222222,0)" xlink:href="#I"/><use transform="matrix(0.007595486111111111,0,0,0.007595486111111111,46.67426215277778,0)" xlink:href="#Q"/><use transform="matrix(0.007595486111111111,0,0,0.007595486111111111,56.009114583333336,0)" xlink:href="#F"/><use transform="matrix(0.007595486111111111,0,0,0.007595486111111111,65.34396701388889,0)" xlink:href="#ad"/><use transform="matrix(0.007595486111111111,0,0,0.007595486111111111,74.67881944444444,0)" xlink:href="#I"/><use transform="matrix(0.007595486111111111,0,0,0.007595486111111111,84.013671875,0)" xlink:href="#ab"/><use transform="matrix(0.007595486111111111,0,0,0.007595486111111111,93.34852430555556,0)" xlink:href="#G"/></g><g id="m"><use transform="matrix(0.007595486111111111,0,0,0.007595486111111111,0,0)" xlink:href="#O"/><use transform="matrix(0.007595486111111111,0,0,0.007595486111111111,9.334852430555555,0)" xlink:href="#L"/><use transform="matrix(0.007595486111111111,0,0,0.007595486111111111,18.66970486111111,0)" xlink:href="#I"/><use transform="matrix(0.007595486111111111,0,0,0.007595486111111111,28.004557291666664,0)" xlink:href="#ab"/><use transform="matrix(0.007595486111111111,0,0,0.007595486111111111,37.33940972222222,0)" xlink:href="#Q"/><use transform="matrix(0.007595486111111111,0,0,0.007595486111111111,46.67426215277778,0)" xlink:href="#ac"/></g><g id="n"><use transform="matrix(0.007595486111111111,0,0,0.007595486111111111,0,0)" xlink:href="#G"/><use transform="matrix(0.007595486111111111,0,0,0.007595486111111111,9.334852430555555,0)" xlink:href="#I"/><use transform="matrix(0.007595486111111111,0,0,0.007595486111111111,18.66970486111111,0)" xlink:href="#ad"/><use transform="matrix(0.007595486111111111,0,0,0.007595486111111111,28.004557291666664,0)" xlink:href="#O"/></g><g id="o"><use transform="matrix(0.007595486111111111,0,0,0.007595486111111111,0,0)" xlink:href="#K"/><use transform="matrix(0.007595486111111111,0,0,0.007595486111111111,9.334852430555555,0)" xlink:href="#L"/><use transform="matrix(0.007595486111111111,0,0,0.007595486111111111,18.66970486111111,0)" xlink:href="#V"/><use transform="matrix(0.007595486111111111,0,0,0.007595486111111111,28.004557291666664,0)" xlink:href="#I"/><use transform="matrix(0.007595486111111111,0,0,0.007595486111111111,37.33940972222222,0)" xlink:href="#ad"/><use transform="matrix(0.007595486111111111,0,0,0.007595486111111111,46.67426215277778,0)" xlink:href="#Y"/><use transform="matrix(0.007595486111111111,0,0,0.007595486111111111,56.009114583333336,0)" xlink:href="#F"/><use transform="matrix(0.007595486111111111,0,0,0.007595486111111111,65.34396701388889,0)" xlink:href="#R"/><use transform="matrix(0.007595486111111111,0,0,0.007595486111111111,74.67881944444444,0)" xlink:href="#F"/><use transform="matrix(0.007595486111111111,0,0,0.007595486111111111,84.013671875,0)" xlink:href="#M"/><use transform="matrix(0.007595486111111111,0,0,0.007595486111111111,93.34852430555556,0)" xlink:href="#K"/><use transform="matrix(0.007595486111111111,0,0,0.007595486111111111,102.68337673611111,0)" xlink:href="#H"/><use transform="matrix(0.007595486111111111,0,0,0.007595486111111111,112.01822916666667,0)" xlink:href="#K"/><use transform="matrix(0.007595486111111111,0,0,0.007595486111111111,121.35308159722223,0)" xlink:href="#R"/><use transform="matrix(0.007595486111111111,0,0,0.007595486111111111,130.68793402777777,0)" xlink:href="#U"/></g><g id="p"><use transform="matrix(0.007595486111111111,0,0,0.007595486111111111,0,0)" xlink:href="#G"/><use transform="matrix(0.007595486111111111,0,0,0.007595486111111111,9.334852430555555,0)" xlink:href="#U"/><use transform="matrix(0.007595486111111111,0,0,0.007595486111111111,18.66970486111111,0)" xlink:href="#G"/><use transform="matrix(0.007595486111111111,0,0,0.007595486111111111,28.004557291666664,0)" xlink:href="#R"/><use transform="matrix(0.007595486111111111,0,0,0.007595486111111111,37.33940972222222,0)" xlink:href="#O"/><use transform="matrix(0.007595486111111111,0,0,0.007595486111111111,46.67426215277778,0)" xlink:href="#ad"/></g><g id="q"><use transform="matrix(0.007595486111111111,0,0,0.007595486111111111,0,0)" xlink:href="#P"/><use transform="matrix(0.007595486111111111,0,0,0.007595486111111111,9.334852430555555,0)" xlink:href="#O"/><use transform="matrix(0.007595486111111111,0,0,0.007595486111111111,18.66970486111111,0)" xlink:href="#G"/><use transform="matrix(0.007595486111111111,0,0,0.007595486111111111,28.004557291666664,0)" xlink:href="#V"/><use transform="matrix(0.007595486111111111,0,0,0.007595486111111111,37.33940972222222,0)" xlink:href="#N"/><use transform="matrix(0.007595486111111111,0,0,0.007595486111111111,46.67426215277778,0)" xlink:href="#K"/><use transform="matrix(0.007595486111111111,0,0,0.007595486111111111,56.009114583333336,0)" xlink:href="#M"/><use transform="matrix(0.007595486111111111,0,0,0.007595486111111111,65.34396701388889,0)" xlink:href="#O"/><use transform="matrix(0.007595486111111111,0,0,0.007595486111111111,74.67881944444444,0)" xlink:href="#P"/></g><g id="r"><use transform="matrix(0.007595486111111111,0,0,0.007595486111111111,0,0)" xlink:href="#F"/><use transform="matrix(0.007595486111111111,0,0,0.007595486111111111,9.334852430555555,0)" xlink:href="#G"/></g><g id="s"><use transform="matrix(0.007595486111111111,0,0,0.007595486111111111,0,0)" xlink:href="#I"/><use transform="matrix(0.007595486111111111,0,0,0.007595486111111111,9.334852430555555,0)" xlink:href="#ab"/><use transform="matrix(0.007595486111111111,0,0,0.007595486111111111,18.66970486111111,0)" xlink:href="#R"/><use transform="matrix(0.007595486111111111,0,0,0.007595486111111111,28.004557291666664,0)" xlink:href="#V"/><use transform="matrix(0.007595486111111111,0,0,0.007595486111111111,37.33940972222222,0)" xlink:href="#N"/><use transform="matrix(0.007595486111111111,0,0,0.007595486111111111,46.67426215277778,0)" xlink:href="#I"/><use transform="matrix(0.007595486111111111,0,0,0.007595486111111111,56.009114583333336,0)" xlink:href="#G"/><use transform="matrix(0.007595486111111111,0,0,0.007595486111111111,65.34396701388889,0)" xlink:href="#G"/><use transform="matrix(0.007595486111111111,0,0,0.007595486111111111,74.67881944444444,0)" xlink:href="#K"/><use transform="matrix(0.007595486111111111,0,0,0.007595486111111111,84.013671875,0)" xlink:href="#L"/><use transform="matrix(0.007595486111111111,0,0,0.007595486111111111,93.34852430555556,0)" xlink:href="#Q"/></g><g id="t"><use transform="matrix(0.007595486111111111,0,0,0.007595486111111111,0,0)" xlink:href="#G"/><use transform="matrix(0.007595486111111111,0,0,0.007595486111111111,9.334852430555555,0)" xlink:href="#O"/><use transform="matrix(0.007595486111111111,0,0,0.007595486111111111,18.66970486111111,0)" xlink:href="#H"/><use transform="matrix(0.007595486111111111,0,0,0.007595486111111111,28.004557291666664,0)" xlink:href="#Z"/><use transform="matrix(0.007595486111111111,0,0,0.007595486111111111,37.33940972222222,0)" xlink:href="#K"/><use transform="matrix(0.007595486111111111,0,0,0.007595486111111111,46.67426215277778,0)" xlink:href="#L"/><use transform="matrix(0.007595486111111111,0,0,0.007595486111111111,56.009114583333336,0)" xlink:href="#Q"/></g><path fill="#3a414a" d="M650-1214c-281 0-336 244-336 533 0 295 60 546 347 546 188 0 263-142 322-282l159 65C1058-155 935 20 659 20c-401 0-546-295-546-701 0-407 135-689 536-689 264 0 391 146 466 335l-168 65c-47-129-127-244-297-244" id="ae"/><g id="u"><use transform="matrix(0.007595486111111111,0,0,0.007595486111111111,0,0)" xlink:href="#ae"/><use transform="matrix(0.007595486111111111,0,0,0.007595486111111111,9.334852430555555,0)" xlink:href="#H"/><use transform="matrix(0.007595486111111111,0,0,0.007595486111111111,18.66970486111111,0)" xlink:href="#O"/><use transform="matrix(0.007595486111111111,0,0,0.007595486111111111,28.004557291666664,0)" xlink:href="#K"/><use transform="matrix(0.007595486111111111,0,0,0.007595486111111111,37.33940972222222,0)" xlink:href="#G"/><use transform="matrix(0.007595486111111111,0,0,0.007595486111111111,46.67426215277778,0)" xlink:href="#R"/><use transform="matrix(0.007595486111111111,0,0,0.007595486111111111,56.009114583333336,0)" xlink:href="#I"/><use transform="matrix(0.007595486111111111,0,0,0.007595486111111111,65.34396701388889,0)" xlink:href="#Q"/><use transform="matrix(0.007595486111111111,0,0,0.007595486111111111,74.67881944444444,0)" xlink:href="#F"/><use transform="matrix(0.007595486111111111,0,0,0.007595486111111111,84.013671875,0)" xlink:href="#ad"/><use transform="matrix(0.007595486111111111,0,0,0.007595486111111111,93.34852430555556,0)" xlink:href="#I"/><use transform="matrix(0.007595486111111111,0,0,0.007595486111111111,102.68337673611111,0)" xlink:href="#ab"/><use transform="matrix(0.007595486111111111,0,0,0.007595486111111111,112.01822916666667,0)" xlink:href="#G"/></g><g id="v"><use transform="matrix(0.007595486111111111,0,0,0.007595486111111111,0,0)" xlink:href="#ac"/><use transform="matrix(0.007595486111111111,0,0,0.007595486111111111,9.334852430555555,0)" xlink:href="#K"/><use transform="matrix(0.007595486111111111,0,0,0.007595486111111111,18.66970486111111,0)" xlink:href="#Q"/><use transform="matrix(0.007595486111111111,0,0,0.007595486111111111,28.004557291666664,0)" xlink:href="#ac"/></g><g id="w"><use transform="matrix(0.007595486111111111,0,0,0.007595486111111111,0,0)" xlink:href="#ad"/><use transform="matrix(0.007595486111111111,0,0,0.007595486111111111,9.334852430555555,0)" xlink:href="#K"/><use transform="matrix(0.007595486111111111,0,0,0.007595486111111111,18.66970486111111,0)" xlink:href="#X"/><use transform="matrix(0.007595486111111111,0,0,0.007595486111111111,28.004557291666664,0)" xlink:href="#O"/><use transform="matrix(0.007595486111111111,0,0,0.007595486111111111,37.33940972222222,0)" xlink:href="#P"/></g><g id="x"><use transform="matrix(0.007595486111111111,0,0,0.007595486111111111,0,0)" xlink:href="#ad"/><use transform="matrix(0.007595486111111111,0,0,0.007595486111111111,9.334852430555555,0)" xlink:href="#O"/><use transform="matrix(0.007595486111111111,0,0,0.007595486111111111,18.66970486111111,0)" xlink:href="#P"/><use transform="matrix(0.007595486111111111,0,0,0.007595486111111111,28.004557291666664,0)" xlink:href="#K"/><use transform="matrix(0.007595486111111111,0,0,0.007595486111111111,37.33940972222222,0)" xlink:href="#ab"/><use transform="matrix(0.007595486111111111,0,0,0.007595486111111111,46.67426215277778,0)" xlink:href="#ad"/></g><path fill="#3a414a" d="M285-1169c8 382 2 780 4 1169H129v-1349h237c86 239 188 461 253 720 69-258 169-481 255-720h225V0H937c2-390-5-788 6-1169-75 255-170 488-259 729H547c-90-240-185-475-262-729" id="af"/><g id="y"><use transform="matrix(0.009765625,0,0,0.009765625,0,0)" xlink:href="#af"/><use transform="matrix(0.009765625,0,0,0.009765625,12.001953125,0)" xlink:href="#K"/><use transform="matrix(0.009765625,0,0,0.009765625,24.00390625,0)" xlink:href="#X"/><use transform="matrix(0.009765625,0,0,0.009765625,36.005859375,0)" xlink:href="#O"/><use transform="matrix(0.009765625,0,0,0.009765625,48.0078125,0)" xlink:href="#P"/></g><path fill="#3a414a" d="M102-681c0-398 126-689 513-689 165 0 291 58 379 174s132 287 132 515c-1 318-88 554-298 657-123 61-317 58-438-3-206-104-288-341-288-654zm749 406c94-160 97-656-5-807-57-85-130-132-231-132-104 0-178 47-234 132-101 153-99 655 1 809 57 89 130 138 232 138 109 0 184-49 237-140" id="ag"/><g id="z"><use transform="matrix(0.009765625,0,0,0.009765625,0,0)" xlink:href="#ag"/><use transform="matrix(0.009765625,0,0,0.009765625,12.001953125,0)" xlink:href="#ab"/><use transform="matrix(0.009765625,0,0,0.009765625,24.00390625,0)" xlink:href="#R"/><use transform="matrix(0.009765625,0,0,0.009765625,36.005859375,0)" xlink:href="#V"/><use transform="matrix(0.009765625,0,0,0.009765625,48.0078125,0)" xlink:href="#N"/><use transform="matrix(0.009765625,0,0,0.009765625,60.009765625,0)" xlink:href="#I"/><use transform="matrix(0.009765625,0,0,0.009765625,72.01171875,0)" xlink:href="#G"/><use transform="matrix(0.009765625,0,0,0.009765625,84.013671875,0)" xlink:href="#G"/><use transform="matrix(0.009765625,0,0,0.009765625,96.015625,0)" xlink:href="#K"/><use transform="matrix(0.009765625,0,0,0.009765625,108.017578125,0)" xlink:href="#L"/><use transform="matrix(0.009765625,0,0,0.009765625,120.01953125,0)" xlink:href="#Q"/></g><path fill="#3a414a" d="M614-1226c-167 1-283 53-283 213 0 183 186 193 334 234 230 63 463 120 463 409 0 286-219 387-518 390C309 23 131-98 79-338l185-37c34 165 149 248 351 246 184-2 324-58 324-238 0-203-207-221-372-266-210-57-422-111-422-377 0-267 201-356 470-360 279-5 430 101 480 324l-188 33c-28-141-121-215-293-213" id="ah"/><g id="A"><use transform="matrix(0.009765625,0,0,0.009765625,0,0)" xlink:href="#ah"/><use transform="matrix(0.009765625,0,0,0.009765625,12.001953125,0)" xlink:href="#O"/><use transform="matrix(0.009765625,0,0,0.009765625,24.00390625,0)" xlink:href="#H"/><use transform="matrix(0.009765625,0,0,0.009765625,36.005859375,0)" xlink:href="#Z"/><use transform="matrix(0.009765625,0,0,0.009765625,48.0078125,0)" xlink:href="#K"/><use transform="matrix(0.009765625,0,0,0.009765625,60.009765625,0)" xlink:href="#L"/><use transform="matrix(0.009765625,0,0,0.009765625,72.01171875,0)" xlink:href="#Q"/></g><path fill="#3a414a" d="M616-1102c361 0 521 202 521 560 0 354-171 562-527 562C259 20 92-192 92-542c0-351 169-560 524-560zm-9 930c200-2 236-165 236-370 0-199-27-367-223-367-195 0-233 146-233 367 0 129 18 223 55 282s92 88 165 88" id="ai"/><path fill="#3a414a" d="M875-1102c70 0 148 7 206 17v237c-110-17-267-37-359 15-123 69-192 207-192 395V0H250c-10-367 32-789-52-1082h271c19 69 36 149 46 228h4c52-151 151-250 356-248" id="aj"/><g id="B"><use transform="matrix(0.006510416666666667,0,0,0.006510416666666667,0,0)" xlink:href="#ai"/><use transform="matrix(0.006510416666666667,0,0,0.006510416666666667,8.001302083333334,0)" xlink:href="#aj"/></g><path fill="#3a414a" d="M775-193C708-75 621 20 439 20 226 20 106-93 106-306c0-251 170-341 417-346l223-4c4-143-12-264-148-264-103 0-141 58-150 153l-293-14c37-219 194-321 455-321 263 0 418 130 417 390v392c1 84 5 161 89 160 21 0 42-2 62-6v152c-57 15-108 27-180 26-145 0-202-73-217-205h-6zm-256 17c168 0 234-139 227-325-166 4-347-25-347 173 0 94 33 152 120 152" id="ak"/><path fill="#3a414a" d="M768-1103c247 0 336 167 336 416V0H824v-619c-3-164-24-273-171-273-164 0-229 142-229 312V0H143c-4-359 9-736-8-1082h268c7 63 12 146 13 215h4c67-145 160-236 348-236" id="al"/><path fill="#3a414a" d="M802-909c-3-189-2-383-2-575h281v1248c-1 83 4 168 8 236H817c-9-50-14-117-15-176h-4C735-49 651 20 482 20 191 20 97-238 97-539c0-243 66-432 221-519 50-28 108-42 175-42 162 2 253 78 309 191zm-70 658c91-113 93-462 2-584-46-61-145-100-224-53-96 56-119 190-120 349 0 123 17 214 52 275 46 82 130 115 222 74 25-12 46-33 68-61" id="am"/><g id="C"><use transform="matrix(0.006510416666666667,0,0,0.006510416666666667,0,0)" xlink:href="#ak"/><use transform="matrix(0.006510416666666667,0,0,0.006510416666666667,8.001302083333334,0)" xlink:href="#al"/><use transform="matrix(0.006510416666666667,0,0,0.006510416666666667,16.002604166666668,0)" xlink:href="#am"/></g><path fill="#3a414a" d="M711 13c-250 0-386-99-385-349l2-556H161v-190h181l88-282h176v282h385v190H606v530c-10 130 45 186 174 184 91-2 176-11 255-27v186C933-1 833 13 711 13" id="an"/><g id="D"><use transform="matrix(0.006510416666666667,0,0,0.006510416666666667,0,0)" xlink:href="#al"/><use transform="matrix(0.006510416666666667,0,0,0.006510416666666667,8.001302083333334,0)" xlink:href="#ai"/><use transform="matrix(0.006510416666666667,0,0,0.006510416666666667,16.002604166666668,0)" xlink:href="#an"/></g></defs></g></svg>